HIERARCHY
ROOT Hips
{
 OFFSET 0.000000 0.000000 0.000000
 CHANNELS 6 Xposition Yposition Zposition Yrotation Xrotation Zrotation
 JOINT Chest
 {
  OFFSET 0.000000 9.588913 -0.003946
  CHANNELS 3 Yrotation Xrotation Zrotation
  JOINT Chest2
  {
   OFFSET 0.000000 9.541882 0.008053
   CHANNELS 3 Yrotation Xrotation Zrotation
   JOINT Chest3
   {
    OFFSET 0.000000 9.501360 0.000000
    CHANNELS 3 Yrotation Xrotation Zrotation
    JOINT Chest4
    {
     OFFSET 0.000000 9.491660 0.000000
     CHANNELS 3 Yrotation Xrotation Zrotation
     JOINT Neck
     {
      OFFSET 0.000000 14.331917 0.000000
      CHANNELS 3 Yrotation Xrotation Zrotation
      JOINT Head
      {
       OFFSET 0.000000 8.884799 0.017034
       CHANNELS 3 Yrotation Xrotation Zrotation
       End Site
       {
        OFFSET 0.000000 16.896195 0.008993
       }
      }
     }
     JOINT RightCollar
     {
      OFFSET -2.923010 9.499495 0.000000
      CHANNELS 3 Yrotation Xrotation Zrotation
      JOINT RightShoulder
      {
       OFFSET -13.795216 0.000000 0.000000
       CHANNELS 3 Yrotation Xrotation Zrotation
       JOINT RightElbow
       {
        OFFSET -30.272209 0.000000 0.000000
        CHANNELS 3 Yrotation Xrotation Zrotation
        JOINT RightWrist
        {
         OFFSET -24.478199 0.000000 0.000000
         CHANNELS 3 Yrotation Xrotation Zrotation
         End Site
         {
          OFFSET -18.090752 0.000000 0.000000
         }
        }
       }
      }
     }
     JOINT LeftCollar
     {
      OFFSET 2.923010 9.499495 0.000000
      CHANNELS 3 Yrotation Xrotation Zrotation
      JOINT LeftShoulder
      {
       OFFSET 13.795216 0.000000 0.000000
       CHANNELS 3 Yrotation Xrotation Zrotation
       JOINT LeftElbow
       {
        OFFSET 30.272209 0.000000 0.000000
        CHANNELS 3 Yrotation Xrotation Zrotation
        JOINT LeftWrist
        {
         OFFSET 24.478199 0.000000 0.000000
         CHANNELS 3 Yrotation Xrotation Zrotation
         End Site
         {
          OFFSET 18.090752 0.000000 0.000000
         }
        }
       }
      }
     }
    }
   }
  }
 }
 JOINT RightHip
 {
  OFFSET -7.826875 0.019532 0.001973
  CHANNELS 3 Yrotation Xrotation Zrotation
  JOINT RightKnee
  {
   OFFSET 0.000000 -40.546152 -0.001885
   CHANNELS 3 Yrotation Xrotation Zrotation
   JOINT RightAnkle
   {
    OFFSET 0.000000 -39.417092 -0.003189
    CHANNELS 3 Yrotation Xrotation Zrotation
    JOINT RightToe
    {
     OFFSET 0.000000 -7.579396 17.243563
     CHANNELS 3 Yrotation Xrotation Zrotation
     End Site
     {
      OFFSET 0.000000 -1.500329 6.694466
     }
    }
   }
  }
 }
 JOINT LeftHip
 {
  OFFSET 7.826875 0.019532 0.001973
  CHANNELS 3 Yrotation Xrotation Zrotation
  JOINT LeftKnee
  {
   OFFSET 0.000000 -40.546152 -0.001885
   CHANNELS 3 Yrotation Xrotation Zrotation
   JOINT LeftAnkle
   {
    OFFSET 0.000000 -39.417092 -0.003189
    CHANNELS 3 Yrotation Xrotation Zrotation
    JOINT LeftToe
    {
     OFFSET 0.000000 -7.579396 17.243563
     CHANNELS 3 Yrotation Xrotation Zrotation
     End Site
     {
      OFFSET 0.000000 -1.500329 6.694466
     }
    }
   }
  }
 }
}
MOTION
Frames: 15
Frame Time: 0.008333
0.000000 87.345680 0.000000 0.000000 -5.767889 0.000000 0.000000 11.653876 0.000000 0.000000 -5.885988 0.000000 0.000000 -0.000000 0.000000 0.000000 -0.000000 0.000000 0.000000 12.528808 0.000000 0.000000 0.711711 0.000000 0.000000 -0.000000 0.000000 0.000000 -0.000000 0.000000 2.309063 -0.000000 0.000000 -2.309063 -0.000000 -0.000000 0.000000 -0.000000 0.000000 0.000000 0.000000 0.000000 -2.309063 0.000000 0.000000 2.309063 -0.000000 0.000000 0.000000 8.520374 0.000000 0.000000 1.905768 0.000000 -0.000000 -4.658254 0.000000 0.000000 -0.000000 0.000000 0.000000 8.520374 0.000000 0.000000 1.905768 0.000000 -0.000000 -4.658254 0.000000 0.000000 -0.000000 0.000000
-5.514729 88.446352 -20.882852 127.104607 -8.663813 -0.840216 1.917197 3.706572 0.716047 1.099298 2.143307 0.359303 1.376463 2.678023 0.455634 1.099298 2.143308 0.359303 -10.012664 29.676745 0.285064 -11.406237 8.077048 2.576329 2.780211 -0.058592 0.177845 0.026095 -0.930395 89.071155 -2.503147 -7.794578 -0.082467 -0.722386 -1.157932 -5.410963 6.008567 -1.184144 -3.019061 9.858604 0.520478 -87.793376 4.485990 14.463996 4.025236 -6.910749 2.586837 8.742987 -26.819577 5.620704 -10.417348 11.185162 2.110806 -1.012363 17.901809 -4.927550 6.311504 -0.100463 0.200948 0.089073 -4.579530 13.175643 7.809074 10.374505 3.621197 -1.718426 7.424304 -5.987655 -4.292382 -0.066221 -0.399667 -0.099478
-5.368099 88.419132 -20.776086 127.021798 -8.586713 -0.865962 1.898726 3.680170 0.745573 1.084688 2.124400 0.371649 1.358245 2.654367 0.470927 1.084687 2.124400 0.371650 -9.979906 29.640323 0.274545 -11.363657 8.023208 2.557459 2.784776 -0.047479 0.173015 0.043156 -0.921677 89.062985 -2.517850 -7.974043 -0.056769 -0.713500 -1.198967 -5.334452 6.015527 -1.195947 -3.009220 9.779422 0.557344 -87.861321 4.347001 14.431349 3.859091 -7.028944 2.538041 8.860923 -26.823165 5.754482 -10.273559 11.261290 1.821324 -0.976978 17.849064 -4.816083 6.141511 -0.077897 0.199021 0.111488 -4.494392 13.074985 7.951616 10.367051 3.781308 -1.638403 7.433678 -6.096444 -4.465314 -0.044105 -0.371905 -0.094153
-5.196755 88.386741 -20.654059 126.943601 -8.515768 -0.885291 1.876240 3.655320 0.768090 1.068519 2.107843 0.383530 1.338080 2.633654 0.485636 1.068519 2.107844 0.383530 -9.944668 29.608918 0.260318 -11.317460 7.975549 2.533786 2.793217 -0.039198 0.171835 0.046405 -0.905164 89.057413 -2.516180 -8.192529 -0.015357 -0.699502 -1.250235 -5.248056 6.017977 -1.211651 -3.005377 9.701987 0.589753 -87.916802 4.201271 14.425086 3.686763 -7.132984 2.503474 8.964275 -26.788582 5.906770 -10.133605 11.339279 1.526954 -0.918666 17.762889 -4.701166 5.958987 -0.063547 0.196193 0.120385 -4.420885 12.978334 8.101731 10.357360 3.961772 -1.553148 7.456922 -6.217044 -4.657369 -0.029585 -0.344496 -0.092782
-5.007432 88.350035 -20.521725 126.870837 -8.457306 -0.890045 1.851214 3.637076 0.777913 1.050415 2.093782 0.395566 1.315497 2.616063 0.500539 1.050415 2.093783 0.395567 -9.907335 29.581535 0.240735 -11.267661 7.932691 2.503546 2.798053 -0.029823 0.170142 0.038513 -0.882819 89.057426 -2.495922 -8.434439 0.038506 -0.679515 -1.307984 -5.160822 6.017780 -1.230158 -3.013349 9.612231 0.616918 -87.956204 4.051953 14.434433 3.512468 -7.222813 2.473080 9.055594 -26.723558 6.075010 -10.016437 11.406425 1.224106 -0.837970 17.671752 -4.580904 5.773293 -0.053536 0.192777 0.117568 -4.358070 12.886886 8.246223 10.340503 4.171828 -1.466163 7.499301 -6.387550 -4.863481 -0.016601 -0.286231 -0.092641
-4.805505 88.309784 -20.378857 126.812464 -8.405095 -0.902691 1.818994 3.618331 0.796651 1.030062 2.082215 0.407396 1.290103 2.601594 0.515179 1.030062 2.082216 0.407396 -9.868437 29.558245 0.216366 -11.215032 7.894842 2.467507 2.798270 -0.014526 0.168008 0.014714 -0.860706 89.063454 -2.458851 -8.681409 0.098762 -0.653736 -1.362159 -5.077182 6.012721 -1.253607 -3.034014 9.511014 0.641096 -87.975586 3.897457 14.458074 3.338699 -7.303786 2.440496 9.136989 -26.639370 6.260637 -9.898809 11.451614 0.912083 -0.742321 17.598154 -4.451233 5.590070 -0.045763 0.185542 0.105155 -4.304483 12.788780 8.405096 10.313900 4.403525 -1.371115 7.558583 -6.527076 -5.082231 -0.009423 -0.263344 -0.095115
-4.596785 88.266863 -20.229405 126.762951 -8.362456 -0.914672 1.784799 3.603730 0.813958 1.009172 2.072953 0.419123 1.264041 2.590009 0.529695 1.009172 2.072954 0.419123 -9.830917 29.538612 0.189413 -11.163560 7.861953 2.428827 2.790623 0.008363 0.170107 -0.027067 -0.842499 89.072888 -2.410471 -8.920343 0.162978 -0.619953 -1.407798 -5.002475 5.997557 -1.288637 -3.067358 9.412875 0.663978 -87.974217 3.737613 14.499845 3.169775 -7.374100 2.423008 9.210815 -26.533697 6.461618 -9.783480 11.469717 0.593803 -0.641806 17.525679 -4.314145 5.412368 -0.039613 0.177492 0.087000 -4.251715 12.684067 8.570043 10.276423 4.665744 -1.271077 7.620024 -6.677471 -5.312936 -0.004473 -0.242660 -0.096465
-4.385457 88.221882 -20.075157 126.721138 -8.327992 -0.924928 1.749961 3.592332 0.830477 0.988141 2.065215 0.430928 1.237804 2.580329 0.544314 0.988141 2.065216 0.430929 -9.796316 29.522697 0.159465 -11.114961 7.834283 2.387390 2.773437 0.040794 0.175398 -0.086194 -0.828801 89.084761 -2.353233 -9.139499 0.224899 -0.575166 -1.447770 -4.941118 5.971726 -1.337486 -3.116395 9.325025 0.688096 -87.954989 3.573972 14.555670 3.008503 -7.432217 2.423781 9.274845 -26.409167 6.674945 -9.667354 11.463562 0.271422 -0.539715 17.440481 -4.171084 5.238154 -0.035525 0.170734 0.066216 -4.197905 12.567412 8.738705 10.226377 4.962717 -1.163692 7.675860 -6.838903 -5.557251 -0.001880 -0.225722 -0.095225
-4.174905 88.175228 -19.917785 126.691533 -8.299663 -0.929221 1.711986 3.582913 0.847049 0.965038 2.058501 0.442225 1.208974 2.571935 0.558289 0.965038 2.058502 0.442226 -9.763331 29.510007 0.124598 -11.067212 7.810883 2.340736 2.751134 0.082260 0.178486 -0.160612 -0.817821 89.098724 -2.286745 -9.331537 0.280425 -0.522480 -1.483592 -4.895043 5.943115 -1.394036 -3.178258 9.242581 0.716783 -87.925691 3.402349 14.610265 2.850744 -7.481190 2.428738 9.327373 -26.273328 6.892324 -9.554871 11.433154 -0.049881 -0.439148 17.356196 -4.027568 5.067823 -0.031266 0.165811 0.045700 -4.151340 12.431202 8.899033 10.164435 5.299595 -1.041605 7.732555 -7.010659 -5.815793 -0.000264 -0.213337 -0.092096
-3.967090 88.127162 -19.758274 126.673272 -8.277059 -0.926608 1.670879 3.576342 0.863914 0.939890 2.053398 0.452417 1.177585 2.565562 0.570876 0.939890 2.053399 0.452418 -9.731558 29.498718 0.085108 -11.019843 7.789292 2.289133 2.726419 0.128324 0.180269 -0.241992 -0.806349 89.114926 -2.212103 -9.497610 0.329978 -0.460287 -1.517680 -4.866205 5.917397 -1.446798 -3.240449 9.170910 0.743825 -87.900851 3.217837 14.657820 2.693247 -7.521398 2.441765 9.367636 -26.130637 7.108221 -9.443930 11.376754 -0.362920 -0.347797 17.288647 -3.888581 4.903033 -0.025437 0.161921 0.027435 -4.120629 12.270459 9.043930 10.097354 5.684554 -0.902991 7.804199 -7.194340 -6.087415 0.001473 -0.205577 -0.087444
-3.762654 88.077895 -19.597109 126.657349 -8.262328 -0.920289 1.630072 3.575031 0.881530 0.914899 2.051521 0.462174 1.146393 2.563222 0.582929 0.914899 2.051522 0.462174 -9.701148 29.486700 0.042256 -10.973261 7.766772 2.234062 2.702739 0.172939 0.181221 -0.324877 -0.794178 89.134544 -2.132888 -9.641964 0.374802 -0.385471 -1.552248 -4.858146 5.885893 -1.485897 -3.299144 9.131299 0.750841 -87.887426 3.021012 14.713313 2.535123 -7.553523 2.473212 9.401730 -25.986579 7.324315 -9.326601 11.298679 -0.663836 -0.268392 17.228977 -3.754283 4.739311 -0.020293 0.159323 0.012033 -4.104330 12.084508 9.175388 10.024929 6.127381 -0.745224 7.895227 -7.393885 -6.374708 0.002752 -0.203811 -0.081639
-3.562494 88.027547 -19.435005 126.639217 -8.255083 -0.911427 1.590746 3.580222 0.901071 0.891336 2.053859 0.472099 1.116994 2.566151 0.595212 0.891337 2.053860 0.472100 -9.671635 29.472123 -0.002968 -10.927091 7.740887 2.176561 2.682653 0.211075 0.177961 -0.406931 -0.782577 89.159271 -2.051524 -9.766469 0.415762 -0.302299 -1.585146 -4.872011 5.842727 -1.505863 -3.359041 9.129061 0.724683 -87.884009 2.817595 14.788311 2.379733 -7.580829 2.523928 9.457213 -25.853391 7.537376 -9.205184 11.201558 -0.950863 -0.194634 17.189098 -3.625433 4.570836 -0.015803 0.158896 0.000486 -4.093658 11.869697 9.295430 9.938934 6.634132 -0.563599 7.998743 -7.610963 -6.678688 0.002096 -0.210057 -0.077001
-3.368243 87.976222 -19.272767 126.623978 -8.249321 -0.898771 1.550832 3.590188 0.922573 0.868223 2.058938 0.481571 1.088159 2.572509 0.606936 0.868224 2.058939 0.481571 -9.640171 29.456216 -0.050554 -10.878040 7.712909 2.115992 2.667232 0.244280 0.170196 -0.482020 -0.772761 89.187746 -1.971767 -9.868551 0.452735 -0.212455 -1.612816 -4.904786 5.793972 -1.505735 -3.419416 9.147592 0.665700 -87.893499 2.614799 14.872812 2.236638 -7.616979 2.586001 9.553977 -25.748516 7.738486 -9.087326 11.086513 -1.224610 -0.119669 17.192281 -3.505955 4.396938 -0.010971 0.163293 -0.007418 -4.090530 11.614498 9.402417 9.842100 7.212047 -0.356603 8.107448 -7.845831 -6.998866 -0.000475 -0.225558 -0.073723
-3.181430 87.924270 -19.110686 126.619814 -8.235592 -0.882845 1.509437 3.600951 0.947058 0.844457 2.063871 0.489954 1.058500 2.578687 0.617296 0.844457 2.063872 0.489955 -9.607616 29.442107 -0.102231 -10.826815 7.687027 2.050568 2.652669 0.276122 0.157771 -0.546125 -0.763745 89.218212 -1.898295 -9.936913 0.485436 -0.118662 -1.632908 -4.948455 5.737995 -1.492320 -3.479591 9.167562 0.584169 -87.915056 2.413188 14.950753 2.108854 -7.675992 2.639923 9.687274 -25.687866 7.920876 -8.973124 10.957917 -1.488615 -0.041625 17.237461 -3.401072 4.219822 -0.006818 0.177826 -0.013706 -4.100580 11.301530 9.496179 9.743816 7.872513 -0.121418 8.212058 -8.099270 -7.338095 -0.003519 -0.251612 -0.069735
-3.002350 87.872625 -18.949161 126.634628 -8.209411 -0.865810 1.466859 3.610654 0.977617 0.819837 2.067171 0.496817 1.027765 2.582830 0.625745 0.819838 2.067172 0.496818 -9.578739 29.432713 -0.158389 -10.779026 7.667726 1.980880 2.630894 0.304318 0.140377 -0.591049 -0.750634 89.250090 -1.831766 -9.970335 0.512318 -0.031732 -1.645721 -4.992594 5.669385 -1.475987 -3.539037 9.171220 0.492960 -87.946184 2.211202 15.007957 1.993371 -7.756678 2.670357 9.843914 -25.682542 8.083489 -8.862517 10.819405 -1.744597 0.039157 17.322041 -3.318900 4.042672 -0.004217 0.208600 -0.019849 -4.119084 10.918662 9.579841 9.647926 8.624329 0.145057 8.300760 -8.369949 -7.695968 -0.006177 -0.290567 -0.065722
